<mxfile host="app.diagrams.net" agent="Mozilla/5.0 (Windows NT 10.0; Win64; x64; rv:132.0) Gecko/20100101 Firefox/132.0" version="24.8.8">
  <diagram name="1 oldal" id="Dld7py3muN3b_eOsJMI9">
    <mxGraphModel grid="1" page="1" gridSize="10" guides="1" tooltips="1" connect="1" arrows="1" fold="1" pageScale="1" pageWidth="827" pageHeight="1169" math="0" shadow="0">
      <root>
        <mxCell id="0" />
        <mxCell id="1" parent="0" />
        <mxCell id="TTZhaGqV8DsMCqyjIaXm-65" value="" style="group" connectable="0" vertex="1" parent="1">
          <mxGeometry x="-20" y="290" width="430" height="145" as="geometry" />
        </mxCell>
        <mxCell id="TTZhaGqV8DsMCqyjIaXm-37" value="Könyvtári tagság" style="rounded=0;whiteSpace=wrap;html=1;" vertex="1" parent="TTZhaGqV8DsMCqyjIaXm-65">
          <mxGeometry x="130" y="70" width="120" height="60" as="geometry" />
        </mxCell>
        <mxCell id="TTZhaGqV8DsMCqyjIaXm-39" value="Olvasó neve" style="ellipse;whiteSpace=wrap;html=1;align=center;" vertex="1" parent="TTZhaGqV8DsMCqyjIaXm-65">
          <mxGeometry x="220" width="100" height="40" as="geometry" />
        </mxCell>
        <mxCell id="TTZhaGqV8DsMCqyjIaXm-43" value="Érvényességi idő" style="ellipse;whiteSpace=wrap;html=1;align=center;" vertex="1" parent="TTZhaGqV8DsMCqyjIaXm-65">
          <mxGeometry x="330" width="100" height="40" as="geometry" />
        </mxCell>
        <mxCell id="TTZhaGqV8DsMCqyjIaXm-44" value="Státusz" style="ellipse;whiteSpace=wrap;html=1;align=center;" vertex="1" parent="TTZhaGqV8DsMCqyjIaXm-65">
          <mxGeometry width="100" height="40" as="geometry" />
        </mxCell>
        <mxCell id="TTZhaGqV8DsMCqyjIaXm-62" value="" style="endArrow=none;html=1;rounded=0;exitX=0.5;exitY=1;exitDx=0;exitDy=0;" edge="1" parent="TTZhaGqV8DsMCqyjIaXm-65" source="TTZhaGqV8DsMCqyjIaXm-39">
          <mxGeometry relative="1" as="geometry">
            <mxPoint x="200" y="80" as="sourcePoint" />
            <mxPoint x="190" y="70" as="targetPoint" />
          </mxGeometry>
        </mxCell>
        <mxCell id="TTZhaGqV8DsMCqyjIaXm-63" value="" style="endArrow=none;html=1;rounded=0;exitX=0.5;exitY=1;exitDx=0;exitDy=0;" edge="1" parent="TTZhaGqV8DsMCqyjIaXm-65" source="TTZhaGqV8DsMCqyjIaXm-44">
          <mxGeometry relative="1" as="geometry">
            <mxPoint x="30" y="70" as="sourcePoint" />
            <mxPoint x="190" y="70" as="targetPoint" />
          </mxGeometry>
        </mxCell>
        <mxCell id="TTZhaGqV8DsMCqyjIaXm-64" value="" style="endArrow=none;html=1;rounded=0;" edge="1" parent="TTZhaGqV8DsMCqyjIaXm-65">
          <mxGeometry relative="1" as="geometry">
            <mxPoint x="190" y="70" as="sourcePoint" />
            <mxPoint x="380" y="40" as="targetPoint" />
          </mxGeometry>
        </mxCell>
        <mxCell id="TTZhaGqV8DsMCqyjIaXm-60" value="" style="endArrow=none;html=1;rounded=0;entryX=0.5;entryY=1;entryDx=0;entryDy=0;exitX=0.5;exitY=0;exitDx=0;exitDy=0;" edge="1" parent="TTZhaGqV8DsMCqyjIaXm-65" source="TTZhaGqV8DsMCqyjIaXm-37">
          <mxGeometry relative="1" as="geometry">
            <mxPoint x="190" y="70" as="sourcePoint" />
            <mxPoint x="160" y="40" as="targetPoint" />
          </mxGeometry>
        </mxCell>
        <mxCell id="TTZhaGqV8DsMCqyjIaXm-75" value="&lt;div&gt;Azonosító&lt;/div&gt;" style="ellipse;whiteSpace=wrap;html=1;align=center;fontStyle=4;" vertex="1" parent="TTZhaGqV8DsMCqyjIaXm-65">
          <mxGeometry x="110" width="100" height="40" as="geometry" />
        </mxCell>
        <mxCell id="TTZhaGqV8DsMCqyjIaXm-66" value="" style="group" connectable="0" vertex="1" parent="1">
          <mxGeometry x="278.25" y="-240" width="663.5" height="140" as="geometry" />
        </mxCell>
        <mxCell id="TTZhaGqV8DsMCqyjIaXm-126" value="" style="group" connectable="0" vertex="1" parent="TTZhaGqV8DsMCqyjIaXm-66">
          <mxGeometry width="663.5" height="140" as="geometry" />
        </mxCell>
        <mxCell id="TTZhaGqV8DsMCqyjIaXm-6" value="Szerző" style="ellipse;whiteSpace=wrap;html=1;align=center;" vertex="1" parent="TTZhaGqV8DsMCqyjIaXm-126">
          <mxGeometry x="401.75" width="100" height="40" as="geometry" />
        </mxCell>
        <mxCell id="TTZhaGqV8DsMCqyjIaXm-22" value="&lt;div&gt;Könyv&lt;/div&gt;" style="rounded=0;whiteSpace=wrap;html=1;" vertex="1" parent="TTZhaGqV8DsMCqyjIaXm-126">
          <mxGeometry x="211.75" y="80" width="120" height="60" as="geometry" />
        </mxCell>
        <mxCell id="TTZhaGqV8DsMCqyjIaXm-51" value="" style="endArrow=none;html=1;rounded=0;entryX=0.5;entryY=0;entryDx=0;entryDy=0;exitX=0.5;exitY=1;exitDx=0;exitDy=0;" edge="1" parent="TTZhaGqV8DsMCqyjIaXm-126" target="TTZhaGqV8DsMCqyjIaXm-22" source="TTZhaGqV8DsMCqyjIaXm-147">
          <mxGeometry relative="1" as="geometry">
            <mxPoint x="333.5" y="40" as="sourcePoint" />
            <mxPoint x="603.5" y="30" as="targetPoint" />
          </mxGeometry>
        </mxCell>
        <mxCell id="TTZhaGqV8DsMCqyjIaXm-54" value="" style="endArrow=none;html=1;rounded=0;entryX=0.5;entryY=0;entryDx=0;entryDy=0;exitX=0.5;exitY=1;exitDx=0;exitDy=0;" edge="1" parent="TTZhaGqV8DsMCqyjIaXm-126" source="TTZhaGqV8DsMCqyjIaXm-143" target="TTZhaGqV8DsMCqyjIaXm-22">
          <mxGeometry relative="1" as="geometry">
            <mxPoint x="451.75" y="40" as="sourcePoint" />
            <mxPoint x="543.5" y="40" as="targetPoint" />
          </mxGeometry>
        </mxCell>
        <mxCell id="TTZhaGqV8DsMCqyjIaXm-58" value="" style="endArrow=none;html=1;rounded=0;exitX=0.5;exitY=1;exitDx=0;exitDy=0;entryX=0.5;entryY=0;entryDx=0;entryDy=0;" edge="1" parent="TTZhaGqV8DsMCqyjIaXm-126" source="TTZhaGqV8DsMCqyjIaXm-6" target="TTZhaGqV8DsMCqyjIaXm-22">
          <mxGeometry relative="1" as="geometry">
            <mxPoint x="613.5" y="40" as="sourcePoint" />
            <mxPoint x="333.5" y="80" as="targetPoint" />
          </mxGeometry>
        </mxCell>
        <mxCell id="TTZhaGqV8DsMCqyjIaXm-132" value="Kiad" style="shape=rhombus;perimeter=rhombusPerimeter;whiteSpace=wrap;html=1;align=center;" vertex="1" parent="TTZhaGqV8DsMCqyjIaXm-126">
          <mxGeometry x="-28.25" y="80" width="120" height="60" as="geometry" />
        </mxCell>
        <mxCell id="TTZhaGqV8DsMCqyjIaXm-133" value="" style="endArrow=classic;html=1;rounded=0;" edge="1" parent="TTZhaGqV8DsMCqyjIaXm-126">
          <mxGeometry width="50" height="50" relative="1" as="geometry">
            <mxPoint x="91.75" y="110" as="sourcePoint" />
            <mxPoint x="211.75" y="110" as="targetPoint" />
          </mxGeometry>
        </mxCell>
        <mxCell id="TTZhaGqV8DsMCqyjIaXm-143" value="Műfaj" style="ellipse;shape=doubleEllipse;margin=3;whiteSpace=wrap;html=1;align=center;" vertex="1" parent="TTZhaGqV8DsMCqyjIaXm-126">
          <mxGeometry x="291.75" width="100" height="40" as="geometry" />
        </mxCell>
        <mxCell id="TTZhaGqV8DsMCqyjIaXm-147" value="KönyvID" style="ellipse;whiteSpace=wrap;html=1;align=center;fontStyle=4;" vertex="1" parent="TTZhaGqV8DsMCqyjIaXm-126">
          <mxGeometry x="71.75" width="100" height="40" as="geometry" />
        </mxCell>
        <mxCell id="TTZhaGqV8DsMCqyjIaXm-4" value="Könyvcím" style="ellipse;whiteSpace=wrap;html=1;align=center;" vertex="1" parent="TTZhaGqV8DsMCqyjIaXm-126">
          <mxGeometry x="181.75" width="100" height="40" as="geometry" />
        </mxCell>
        <mxCell id="TTZhaGqV8DsMCqyjIaXm-52" value="" style="endArrow=none;html=1;rounded=0;entryX=0.5;entryY=0;entryDx=0;entryDy=0;exitX=0.5;exitY=1;exitDx=0;exitDy=0;" edge="1" parent="TTZhaGqV8DsMCqyjIaXm-126" source="TTZhaGqV8DsMCqyjIaXm-4" target="TTZhaGqV8DsMCqyjIaXm-22">
          <mxGeometry relative="1" as="geometry">
            <mxPoint x="150.5" y="130" as="sourcePoint" />
            <mxPoint x="333.5" y="80" as="targetPoint" />
          </mxGeometry>
        </mxCell>
        <mxCell id="TTZhaGqV8DsMCqyjIaXm-100" value="" style="group" connectable="0" vertex="1" parent="1">
          <mxGeometry x="-130" y="-240" width="440" height="140" as="geometry" />
        </mxCell>
        <mxCell id="TTZhaGqV8DsMCqyjIaXm-33" value="Kiadó" style="rounded=0;whiteSpace=wrap;html=1;" vertex="1" parent="TTZhaGqV8DsMCqyjIaXm-100">
          <mxGeometry x="180" y="80" width="120" height="60" as="geometry" />
        </mxCell>
        <mxCell id="TTZhaGqV8DsMCqyjIaXm-34" value="KiadóID" style="ellipse;whiteSpace=wrap;html=1;align=center;fontStyle=4;" vertex="1" parent="TTZhaGqV8DsMCqyjIaXm-100">
          <mxGeometry x="10" y="30" width="100" height="40" as="geometry" />
        </mxCell>
        <mxCell id="TTZhaGqV8DsMCqyjIaXm-35" value="Név" style="ellipse;whiteSpace=wrap;html=1;align=center;" vertex="1" parent="TTZhaGqV8DsMCqyjIaXm-100">
          <mxGeometry x="10" y="80" width="100" height="40" as="geometry" />
        </mxCell>
        <mxCell id="TTZhaGqV8DsMCqyjIaXm-93" value="" style="endArrow=none;html=1;rounded=0;exitX=0;exitY=0.5;exitDx=0;exitDy=0;entryX=1;entryY=0.5;entryDx=0;entryDy=0;" edge="1" parent="TTZhaGqV8DsMCqyjIaXm-100" source="TTZhaGqV8DsMCqyjIaXm-33" target="TTZhaGqV8DsMCqyjIaXm-34">
          <mxGeometry relative="1" as="geometry">
            <mxPoint x="270" y="80" as="sourcePoint" />
            <mxPoint x="430" y="80" as="targetPoint" />
          </mxGeometry>
        </mxCell>
        <mxCell id="TTZhaGqV8DsMCqyjIaXm-95" value="" style="endArrow=none;html=1;rounded=0;entryX=1;entryY=0.5;entryDx=0;entryDy=0;" edge="1" parent="TTZhaGqV8DsMCqyjIaXm-100" target="TTZhaGqV8DsMCqyjIaXm-36">
          <mxGeometry relative="1" as="geometry">
            <mxPoint x="180" y="110" as="sourcePoint" />
            <mxPoint x="290" y="40" as="targetPoint" />
          </mxGeometry>
        </mxCell>
        <mxCell id="TTZhaGqV8DsMCqyjIaXm-96" value="" style="endArrow=none;html=1;rounded=0;entryX=0;entryY=0.5;entryDx=0;entryDy=0;exitX=1;exitY=0.5;exitDx=0;exitDy=0;" edge="1" parent="TTZhaGqV8DsMCqyjIaXm-100" source="TTZhaGqV8DsMCqyjIaXm-35" target="TTZhaGqV8DsMCqyjIaXm-33">
          <mxGeometry relative="1" as="geometry">
            <mxPoint x="120" y="120" as="sourcePoint" />
            <mxPoint x="230" y="80" as="targetPoint" />
          </mxGeometry>
        </mxCell>
        <mxCell id="TTZhaGqV8DsMCqyjIaXm-114" value="" style="endArrow=classic;html=1;rounded=0;entryX=0;entryY=0.5;entryDx=0;entryDy=0;" edge="1" parent="1" target="TTZhaGqV8DsMCqyjIaXm-9" source="TTZhaGqV8DsMCqyjIaXm-119">
          <mxGeometry width="50" height="50" relative="1" as="geometry">
            <mxPoint x="420" y="440" as="sourcePoint" />
            <mxPoint x="450" y="490" as="targetPoint" />
            <Array as="points" />
          </mxGeometry>
        </mxCell>
        <mxCell id="TTZhaGqV8DsMCqyjIaXm-115" value="" style="group" connectable="0" vertex="1" parent="1">
          <mxGeometry x="280" y="20" width="570" height="200" as="geometry" />
        </mxCell>
        <mxCell id="TTZhaGqV8DsMCqyjIaXm-85" value="" style="group" connectable="0" vertex="1" parent="TTZhaGqV8DsMCqyjIaXm-115">
          <mxGeometry y="10" width="570" height="150" as="geometry" />
        </mxCell>
        <mxCell id="TTZhaGqV8DsMCqyjIaXm-8" value="Kölcsönzés dátuma" style="ellipse;whiteSpace=wrap;html=1;align=center;" vertex="1" parent="TTZhaGqV8DsMCqyjIaXm-85">
          <mxGeometry x="400" y="110" width="100" height="40" as="geometry" />
        </mxCell>
        <mxCell id="TTZhaGqV8DsMCqyjIaXm-67" value="" style="endArrow=none;html=1;rounded=0;exitX=1;exitY=0.5;exitDx=0;exitDy=0;entryX=0;entryY=0.5;entryDx=0;entryDy=0;" edge="1" parent="TTZhaGqV8DsMCqyjIaXm-85" source="TTZhaGqV8DsMCqyjIaXm-15" target="TTZhaGqV8DsMCqyjIaXm-8">
          <mxGeometry relative="1" as="geometry">
            <mxPoint x="270" y="90" as="sourcePoint" />
            <mxPoint x="260" y="40" as="targetPoint" />
          </mxGeometry>
        </mxCell>
        <mxCell id="TTZhaGqV8DsMCqyjIaXm-69" value="" style="endArrow=none;html=1;rounded=0;exitX=0;exitY=0.5;exitDx=0;exitDy=0;entryX=1;entryY=0.5;entryDx=0;entryDy=0;" edge="1" parent="TTZhaGqV8DsMCqyjIaXm-85" source="TTZhaGqV8DsMCqyjIaXm-17" target="TTZhaGqV8DsMCqyjIaXm-15">
          <mxGeometry relative="1" as="geometry">
            <mxPoint x="40" y="90" as="sourcePoint" />
            <mxPoint x="260" y="130" as="targetPoint" />
          </mxGeometry>
        </mxCell>
        <mxCell id="TTZhaGqV8DsMCqyjIaXm-72" value="" style="endArrow=none;html=1;rounded=0;exitX=0;exitY=0.5;exitDx=0;exitDy=0;entryX=1;entryY=0.5;entryDx=0;entryDy=0;" edge="1" parent="TTZhaGqV8DsMCqyjIaXm-85" target="TTZhaGqV8DsMCqyjIaXm-15">
          <mxGeometry relative="1" as="geometry">
            <mxPoint x="400" y="75" as="sourcePoint" />
            <mxPoint x="330" y="120" as="targetPoint" />
          </mxGeometry>
        </mxCell>
        <mxCell id="TTZhaGqV8DsMCqyjIaXm-15" value="Kölcsönzés" style="rounded=0;whiteSpace=wrap;html=1;" vertex="1" parent="TTZhaGqV8DsMCqyjIaXm-85">
          <mxGeometry x="210" y="90" width="120" height="60" as="geometry" />
        </mxCell>
        <mxCell id="TTZhaGqV8DsMCqyjIaXm-17" value="Állapot" style="ellipse;whiteSpace=wrap;html=1;align=center;" vertex="1" parent="TTZhaGqV8DsMCqyjIaXm-85">
          <mxGeometry x="400" y="10" width="100" height="40" as="geometry" />
        </mxCell>
        <mxCell id="TTZhaGqV8DsMCqyjIaXm-128" value="" style="endArrow=classic;html=1;rounded=0;exitX=0;exitY=0.5;exitDx=0;exitDy=0;entryX=0.5;entryY=0;entryDx=0;entryDy=0;" edge="1" parent="TTZhaGqV8DsMCqyjIaXm-85">
          <mxGeometry width="50" height="50" relative="1" as="geometry">
            <mxPoint x="269.23" as="sourcePoint" />
            <mxPoint x="269.23" y="90" as="targetPoint" />
          </mxGeometry>
        </mxCell>
        <mxCell id="TTZhaGqV8DsMCqyjIaXm-131" value="" style="endArrow=classic;html=1;rounded=0;exitX=0;exitY=0.5;exitDx=0;exitDy=0;" edge="1" parent="TTZhaGqV8DsMCqyjIaXm-85">
          <mxGeometry width="50" height="50" relative="1" as="geometry">
            <mxPoint x="269.37" as="sourcePoint" />
            <mxPoint x="269" y="80" as="targetPoint" />
          </mxGeometry>
        </mxCell>
        <mxCell id="-R0KiWkK1IH2rvHWxK87-4" value="KölcsönzésID" style="ellipse;whiteSpace=wrap;html=1;align=center;fontStyle=4;" vertex="1" parent="TTZhaGqV8DsMCqyjIaXm-85">
          <mxGeometry x="400" y="55" width="100" height="40" as="geometry" />
        </mxCell>
        <mxCell id="TTZhaGqV8DsMCqyjIaXm-20" value="Visszavétel dátuma" style="ellipse;whiteSpace=wrap;html=1;align=center;" vertex="1" parent="TTZhaGqV8DsMCqyjIaXm-115">
          <mxGeometry x="400" y="170" width="100" height="40" as="geometry" />
        </mxCell>
        <mxCell id="TTZhaGqV8DsMCqyjIaXm-71" value="" style="endArrow=none;html=1;rounded=0;entryX=0;entryY=0.5;entryDx=0;entryDy=0;exitX=1;exitY=0.5;exitDx=0;exitDy=0;" edge="1" parent="TTZhaGqV8DsMCqyjIaXm-115" source="TTZhaGqV8DsMCqyjIaXm-15" target="TTZhaGqV8DsMCqyjIaXm-20">
          <mxGeometry relative="1" as="geometry">
            <mxPoint y="185" as="sourcePoint" />
            <mxPoint x="160" y="185" as="targetPoint" />
          </mxGeometry>
        </mxCell>
        <mxCell id="TTZhaGqV8DsMCqyjIaXm-122" value="" style="endArrow=classic;html=1;rounded=0;exitX=0.5;exitY=0;exitDx=0;exitDy=0;" edge="1" parent="TTZhaGqV8DsMCqyjIaXm-115" source="TTZhaGqV8DsMCqyjIaXm-120">
          <mxGeometry width="50" height="50" relative="1" as="geometry">
            <mxPoint x="270" y="220" as="sourcePoint" />
            <mxPoint x="270" y="160" as="targetPoint" />
          </mxGeometry>
        </mxCell>
        <mxCell id="TTZhaGqV8DsMCqyjIaXm-121" value="" style="endArrow=classic;html=1;rounded=0;exitX=0.5;exitY=0;exitDx=0;exitDy=0;entryX=0.5;entryY=1;entryDx=0;entryDy=0;" edge="1" parent="TTZhaGqV8DsMCqyjIaXm-115" source="TTZhaGqV8DsMCqyjIaXm-120">
          <mxGeometry width="50" height="50" relative="1" as="geometry">
            <mxPoint x="270" y="260.0000000000002" as="sourcePoint" />
            <mxPoint x="270" y="170.00000000000023" as="targetPoint" />
          </mxGeometry>
        </mxCell>
        <mxCell id="TTZhaGqV8DsMCqyjIaXm-119" value="Rendelkezik" style="shape=rhombus;perimeter=rhombusPerimeter;whiteSpace=wrap;html=1;align=center;" vertex="1" parent="1">
          <mxGeometry x="300" y="360" width="120" height="60" as="geometry" />
        </mxCell>
        <mxCell id="TTZhaGqV8DsMCqyjIaXm-120" value="Kölcsönöz" style="shape=rhombus;perimeter=rhombusPerimeter;whiteSpace=wrap;html=1;align=center;" vertex="1" parent="1">
          <mxGeometry x="490" y="240" width="120" height="60" as="geometry" />
        </mxCell>
        <mxCell id="TTZhaGqV8DsMCqyjIaXm-125" value="" style="endArrow=classic;html=1;rounded=0;" edge="1" parent="1">
          <mxGeometry width="50" height="50" relative="1" as="geometry">
            <mxPoint x="550" y="300" as="sourcePoint" />
            <mxPoint x="550" y="360" as="targetPoint" />
            <Array as="points">
              <mxPoint x="550" y="300" />
            </Array>
          </mxGeometry>
        </mxCell>
        <mxCell id="TTZhaGqV8DsMCqyjIaXm-127" value="Tartalmaz" style="shape=rhombus;perimeter=rhombusPerimeter;whiteSpace=wrap;html=1;align=center;" vertex="1" parent="1">
          <mxGeometry x="490" y="-30" width="120" height="60" as="geometry" />
        </mxCell>
        <mxCell id="TTZhaGqV8DsMCqyjIaXm-129" value="" style="endArrow=classic;html=1;rounded=0;exitX=0.5;exitY=0;exitDx=0;exitDy=0;" edge="1" parent="1">
          <mxGeometry width="50" height="50" relative="1" as="geometry">
            <mxPoint x="550.43" y="-40" as="sourcePoint" />
            <mxPoint x="550" y="-90" as="targetPoint" />
          </mxGeometry>
        </mxCell>
        <mxCell id="TTZhaGqV8DsMCqyjIaXm-130" value="" style="endArrow=classic;html=1;rounded=0;entryX=0.5;entryY=1;entryDx=0;entryDy=0;" edge="1" parent="1">
          <mxGeometry width="50" height="50" relative="1" as="geometry">
            <mxPoint x="550" y="-30" as="sourcePoint" />
            <mxPoint x="550" y="-100" as="targetPoint" />
            <Array as="points" />
          </mxGeometry>
        </mxCell>
        <mxCell id="TTZhaGqV8DsMCqyjIaXm-36" value="Székhely" style="ellipse;whiteSpace=wrap;html=1;align=center;" vertex="1" parent="1">
          <mxGeometry x="-120" y="-110" width="100" height="40" as="geometry" />
        </mxCell>
        <mxCell id="TTZhaGqV8DsMCqyjIaXm-91" value="Email" style="ellipse;whiteSpace=wrap;html=1;align=center;" vertex="1" parent="1">
          <mxGeometry x="-120" y="-60" width="100" height="40" as="geometry" />
        </mxCell>
        <mxCell id="TTZhaGqV8DsMCqyjIaXm-94" value="" style="endArrow=none;html=1;rounded=0;exitX=1;exitY=0.5;exitDx=0;exitDy=0;entryX=0;entryY=0.5;entryDx=0;entryDy=0;" edge="1" parent="1" source="TTZhaGqV8DsMCqyjIaXm-91" target="TTZhaGqV8DsMCqyjIaXm-33">
          <mxGeometry relative="1" as="geometry">
            <mxPoint x="-30" y="-30" as="sourcePoint" />
            <mxPoint x="120" y="-70" as="targetPoint" />
          </mxGeometry>
        </mxCell>
        <mxCell id="TTZhaGqV8DsMCqyjIaXm-134" value="" style="endArrow=classic;html=1;rounded=0;" edge="1" parent="1">
          <mxGeometry width="50" height="50" relative="1" as="geometry">
            <mxPoint x="370" y="-130" as="sourcePoint" />
            <mxPoint x="480" y="-130" as="targetPoint" />
            <Array as="points" />
          </mxGeometry>
        </mxCell>
        <mxCell id="TTZhaGqV8DsMCqyjIaXm-135" value="" style="endArrow=classic;html=1;rounded=0;exitX=0;exitY=0.5;exitDx=0;exitDy=0;entryX=1;entryY=0.5;entryDx=0;entryDy=0;" edge="1" parent="1" source="TTZhaGqV8DsMCqyjIaXm-132" target="TTZhaGqV8DsMCqyjIaXm-33">
          <mxGeometry width="50" height="50" relative="1" as="geometry">
            <mxPoint x="639.38" y="-10" as="sourcePoint" />
            <mxPoint x="180" y="-130" as="targetPoint" />
            <Array as="points">
              <mxPoint x="250" y="-130" />
            </Array>
          </mxGeometry>
        </mxCell>
        <mxCell id="TTZhaGqV8DsMCqyjIaXm-150" value="Könyvek száma" style="ellipse;whiteSpace=wrap;html=1;align=center;" vertex="1" parent="1">
          <mxGeometry x="364" y="-20" width="100" height="40" as="geometry" />
        </mxCell>
        <mxCell id="TTZhaGqV8DsMCqyjIaXm-156" value="" style="endArrow=none;html=1;rounded=0;entryX=0;entryY=0.5;entryDx=0;entryDy=0;exitX=1;exitY=0.5;exitDx=0;exitDy=0;" edge="1" parent="1" source="TTZhaGqV8DsMCqyjIaXm-150" target="TTZhaGqV8DsMCqyjIaXm-127">
          <mxGeometry relative="1" as="geometry">
            <mxPoint x="530" y="-40.66999999999999" as="sourcePoint" />
            <mxPoint x="690" y="-40.66999999999999" as="targetPoint" />
          </mxGeometry>
        </mxCell>
        <mxCell id="-R0KiWkK1IH2rvHWxK87-2" value="" style="group" connectable="0" vertex="1" parent="1">
          <mxGeometry x="490" y="280" width="410" height="190" as="geometry" />
        </mxCell>
        <mxCell id="TTZhaGqV8DsMCqyjIaXm-9" value="Olvasó" style="rounded=0;whiteSpace=wrap;html=1;" vertex="1" parent="-R0KiWkK1IH2rvHWxK87-2">
          <mxGeometry y="80" width="120" height="60" as="geometry" />
        </mxCell>
        <mxCell id="TTZhaGqV8DsMCqyjIaXm-10" value="OlvasóID" style="ellipse;whiteSpace=wrap;html=1;align=center;fontStyle=4;" vertex="1" parent="-R0KiWkK1IH2rvHWxK87-2">
          <mxGeometry x="170" width="100" height="40" as="geometry" />
        </mxCell>
        <mxCell id="TTZhaGqV8DsMCqyjIaXm-13" value="Név" style="ellipse;whiteSpace=wrap;html=1;align=center;" vertex="1" parent="-R0KiWkK1IH2rvHWxK87-2">
          <mxGeometry x="170" y="150" width="100" height="40" as="geometry" />
        </mxCell>
        <mxCell id="TTZhaGqV8DsMCqyjIaXm-14" value="Email" style="ellipse;whiteSpace=wrap;html=1;align=center;" vertex="1" parent="-R0KiWkK1IH2rvHWxK87-2">
          <mxGeometry x="170" y="100" width="100" height="40" as="geometry" />
        </mxCell>
        <mxCell id="TTZhaGqV8DsMCqyjIaXm-97" value="Irányítószám" style="ellipse;whiteSpace=wrap;html=1;align=center;" vertex="1" parent="-R0KiWkK1IH2rvHWxK87-2">
          <mxGeometry x="310" width="100" height="40" as="geometry" />
        </mxCell>
        <mxCell id="TTZhaGqV8DsMCqyjIaXm-99" value="Utca" style="ellipse;whiteSpace=wrap;html=1;align=center;" vertex="1" parent="-R0KiWkK1IH2rvHWxK87-2">
          <mxGeometry x="310" y="100" width="100" height="40" as="geometry" />
        </mxCell>
        <mxCell id="TTZhaGqV8DsMCqyjIaXm-101" value="" style="endArrow=none;html=1;rounded=0;entryX=0;entryY=0.5;entryDx=0;entryDy=0;" edge="1" parent="-R0KiWkK1IH2rvHWxK87-2" target="TTZhaGqV8DsMCqyjIaXm-10">
          <mxGeometry relative="1" as="geometry">
            <mxPoint x="120" y="108.82" as="sourcePoint" />
            <mxPoint x="280" y="108.82" as="targetPoint" />
          </mxGeometry>
        </mxCell>
        <mxCell id="TTZhaGqV8DsMCqyjIaXm-102" value="" style="endArrow=none;html=1;rounded=0;entryX=0;entryY=0.5;entryDx=0;entryDy=0;" edge="1" parent="-R0KiWkK1IH2rvHWxK87-2">
          <mxGeometry relative="1" as="geometry">
            <mxPoint x="120" y="108.82" as="sourcePoint" />
            <mxPoint x="170" y="70" as="targetPoint" />
          </mxGeometry>
        </mxCell>
        <mxCell id="TTZhaGqV8DsMCqyjIaXm-103" value="" style="endArrow=none;html=1;rounded=0;entryX=0;entryY=0.5;entryDx=0;entryDy=0;" edge="1" parent="-R0KiWkK1IH2rvHWxK87-2" target="TTZhaGqV8DsMCqyjIaXm-14">
          <mxGeometry relative="1" as="geometry">
            <mxPoint x="120" y="108.82" as="sourcePoint" />
            <mxPoint x="280" y="108.82" as="targetPoint" />
          </mxGeometry>
        </mxCell>
        <mxCell id="TTZhaGqV8DsMCqyjIaXm-104" value="" style="endArrow=none;html=1;rounded=0;entryX=0;entryY=0.5;entryDx=0;entryDy=0;exitX=1;exitY=0.5;exitDx=0;exitDy=0;" edge="1" parent="-R0KiWkK1IH2rvHWxK87-2" source="TTZhaGqV8DsMCqyjIaXm-9" target="TTZhaGqV8DsMCqyjIaXm-13">
          <mxGeometry relative="1" as="geometry">
            <mxPoint x="130" y="109.40999999999997" as="sourcePoint" />
            <mxPoint x="290" y="109.40999999999997" as="targetPoint" />
            <Array as="points" />
          </mxGeometry>
        </mxCell>
        <mxCell id="TTZhaGqV8DsMCqyjIaXm-105" value="" style="endArrow=none;html=1;rounded=0;entryX=0;entryY=0.5;entryDx=0;entryDy=0;" edge="1" parent="-R0KiWkK1IH2rvHWxK87-2" target="TTZhaGqV8DsMCqyjIaXm-97">
          <mxGeometry relative="1" as="geometry">
            <mxPoint x="270" y="69.40999999999997" as="sourcePoint" />
            <mxPoint x="430" y="69.40999999999997" as="targetPoint" />
          </mxGeometry>
        </mxCell>
        <mxCell id="TTZhaGqV8DsMCqyjIaXm-106" value="" style="endArrow=none;html=1;rounded=0;entryX=0;entryY=0.5;entryDx=0;entryDy=0;" edge="1" parent="-R0KiWkK1IH2rvHWxK87-2" target="TTZhaGqV8DsMCqyjIaXm-99">
          <mxGeometry relative="1" as="geometry">
            <mxPoint x="270" y="69.40999999999997" as="sourcePoint" />
            <mxPoint x="300" y="70" as="targetPoint" />
          </mxGeometry>
        </mxCell>
        <mxCell id="TTZhaGqV8DsMCqyjIaXm-107" value="" style="endArrow=none;html=1;rounded=0;entryX=0;entryY=0.5;entryDx=0;entryDy=0;" edge="1" parent="-R0KiWkK1IH2rvHWxK87-2">
          <mxGeometry relative="1" as="geometry">
            <mxPoint x="270" y="70" as="sourcePoint" />
            <mxPoint x="310" y="70" as="targetPoint" />
          </mxGeometry>
        </mxCell>
        <mxCell id="TTZhaGqV8DsMCqyjIaXm-140" value="Város" style="ellipse;whiteSpace=wrap;html=1;align=center;" vertex="1" parent="-R0KiWkK1IH2rvHWxK87-2">
          <mxGeometry x="310" y="50" width="100" height="40" as="geometry" />
        </mxCell>
        <mxCell id="TTZhaGqV8DsMCqyjIaXm-141" value="Cím" style="ellipse;whiteSpace=wrap;html=1;align=center;" vertex="1" parent="-R0KiWkK1IH2rvHWxK87-2">
          <mxGeometry x="170" y="50" width="100" height="40" as="geometry" />
        </mxCell>
        <mxCell id="-R0KiWkK1IH2rvHWxK87-3" value="" style="endArrow=classic;html=1;rounded=0;entryX=1;entryY=0.5;entryDx=0;entryDy=0;" edge="1" parent="1" target="TTZhaGqV8DsMCqyjIaXm-37">
          <mxGeometry width="50" height="50" relative="1" as="geometry">
            <mxPoint x="300" y="389.6" as="sourcePoint" />
            <mxPoint x="250" y="390" as="targetPoint" />
            <Array as="points" />
          </mxGeometry>
        </mxCell>
      </root>
    </mxGraphModel>
  </diagram>
</mxfile>
